<?xml version="1.0" encoding="utf-8"?>
<!-- Generator: Adobe Illustrator 21.1.0, SVG Export Plug-In . SVG Version: 6.00 Build 0)  -->
<svg version="1.1" id="Layer_1" xmlns="http://www.w3.org/2000/svg" xmlns:xlink="http://www.w3.org/1999/xlink" x="0px" y="0px"
	 viewBox="0 0 1988.4 2688.5" style="enable-background:new 0 0 1988.4 2688.5;" xml:space="preserve">
<style type="text/css">
	.st0{display:none;}
	.st1{display:inline;}
	
		.st2{display:inline;fill:#FFFFFF;stroke:#000000;stroke-width:5;stroke-linecap:round;stroke-linejoin:round;stroke-miterlimit:10;}
	.st3{fill:#FF0000;}
	
		.st4{display:inline;fill:#FFCF57;stroke:#000000;stroke-width:5;stroke-linecap:round;stroke-linejoin:round;stroke-miterlimit:10;}
	.st5{display:inline;fill:#C17121;}
	.st6{fill:#FFFFFF;}
	.st7{fill:#FFCF57;}
	.st8{font-family:'DidactGothic-Regular';}
	.st9{font-size:180px;}
	.st10{font-family:'BalooBhai-Regular';}
	.st11{font-size:400px;}
</style>
<g id="Layer_1_1_" class="st0">
	<circle class="st1" cx="-230.4" cy="229.5" r="4.5"/>
	<circle class="st1" cx="-194.4" cy="229.5" r="4.5"/>
	<circle class="st1" cx="-158.4" cy="229.5" r="4.5"/>
	<circle class="st1" cx="-122.4" cy="229.5" r="4.5"/>
	<circle class="st1" cx="-230.4" cy="265.5" r="4.5"/>
	<circle class="st1" cx="-194.4" cy="265.5" r="4.5"/>
	<circle class="st1" cx="-158.4" cy="265.5" r="4.5"/>
	<circle class="st1" cx="-122.4" cy="265.5" r="4.5"/>
	<path class="st2" d="M-261.9,229.5c-5.5,4.1-9,10.6-9,18s3.5,13.9,9,18c-5.5,4.1-9,10.6-9,18c0,12.4,10.1,22.5,22.5,22.5
		c7.4,0,13.9-3.5,18-9c4.1,5.5,10.6,9,18,9s13.9-3.5,18-9c4.1,5.5,10.6,9,18,9s13.9-3.5,18-9c4.1,5.5,10.6,9,18,9s13.9-3.5,18-9
		c4.1,5.5,10.6,9,18,9c12.4,0,22.5-10.1,22.5-22.5c0-7.4-3.5-13.9-9-18c5.5-4.1,9-10.6,9-18s-3.5-13.9-9-18c2.9-2.2,5.3-5.1,6.9-8.5
		h-184.8C-267.2,224.4-264.8,227.3-261.9,229.5z"/>
	<g class="st1">
		<path class="st3" d="M-176.4,276.5c-1.3,0-2.6-0.5-3.5-1.5l-8.2-8.2c-1.2-1.2-1.7-3.1-1.3-4.7l8.1-32.5l-3.5-3.5
			c-1.4-1.4-1.9-3.6-1.1-5.4c0.8-1.9,2.6-3.1,4.6-3.1h9.9c2,0,3.8,1.2,4.6,3.1s0.4,4-1.1,5.4l-3.5,3.5l8.1,32.5
			c0.4,1.7-0.1,3.5-1.3,4.7l-8.2,8.2C-173.8,275.9-175.1,276.5-176.4,276.5z"/>
		<path d="M-171.4,220c2.2,0,3.3,2.7,1.8,4.3l-3.5,3.5c-0.6,0.6-0.9,1.5-0.7,2.4l8.1,32.5c0.2,0.9,0,1.8-0.7,2.4l-8.2,8.2
			c-0.5,0.5-1.1,0.7-1.8,0.7s-1.3-0.2-1.8-0.7l-8.2-8.3c-0.6-0.6-0.9-1.5-0.7-2.4l8.1-32.5c0.2-0.9,0-1.8-0.7-2.4l-3.5-3.5
			c-1.6-1.6-0.5-4.3,1.8-4.3L-171.4,220 M-171.4,215h-10c-3,0-5.8,1.8-6.9,4.6c-1.2,2.8-0.5,6,1.6,8.2l2.5,2.5l-7.8,31.1
			c-0.6,2.5,0.1,5.3,2,7.1l8.2,8.2c1.4,1.4,3.3,2.2,5.3,2.2s3.9-0.8,5.3-2.2l8.2-8.2c1.9-1.9,2.6-4.6,2-7.1l-7.8-31.1l2.5-2.5
			c2.2-2.2,2.8-5.4,1.6-8.2C-165.7,216.8-168.4,215-171.4,215L-171.4,215z"/>
	</g>
	<path class="st4" d="M-81.9,211.5c0-7.4-3.5-13.9-9-18c5.5-4.1,9-10.6,9-18s-3.5-13.9-9-18c5.5-4.1,9-10.6,9-18
		c0-12.4-10.1-22.5-22.5-22.5c-7.4,0-13.9,3.5-18,9c-4.1-5.5-10.6-9-18-9s-13.9,3.5-18,9c-4.1-5.5-10.6-9-18-9s-13.9,3.5-18,9
		c-4.1-5.5-10.6-9-18-9s-13.9,3.5-18,9c-4.1-5.5-10.6-9-18-9c-12.4,0-22.5,10.1-22.5,22.5c0,7.4,3.5,13.9,9,18c-5.5,4.1-9,10.6-9,18
		s3.5,13.9,9,18c-5.5,4.1-9,10.6-9,18c0,3.4,0.8,6.6,2.1,9.5H-84C-82.7,218.1-81.9,214.9-81.9,211.5z"/>
	<circle class="st5" cx="-230.4" cy="157.5" r="4.5"/>
	<circle class="st5" cx="-194.4" cy="157.5" r="4.5"/>
	<circle class="st5" cx="-158.4" cy="157.5" r="4.5"/>
	<circle class="st5" cx="-122.4" cy="157.5" r="4.5"/>
	<circle class="st5" cx="-230.4" cy="193.5" r="4.5"/>
	<circle class="st5" cx="-194.4" cy="193.5" r="4.5"/>
	<circle class="st5" cx="-158.4" cy="193.5" r="4.5"/>
	<circle class="st5" cx="-122.4" cy="193.5" r="4.5"/>
	<rect x="-263.4" y="359" class="st5" width="201" height="9"/>
</g>
<g id="Layer_2">
	<g>
		<path class="st6" d="M1686.4,1792c-61,0-117-28-153.7-76.9c-4.5-6-11.7-9.6-19.2-9.6c-7.6,0-14.7,3.6-19.2,9.6
			c-36.7,48.9-92.7,76.9-153.7,76.9s-117-28-153.7-76.9c-4.5-6-11.7-9.6-19.2-9.6c-7.6,0-14.7,3.6-19.2,9.6
			c-36.9,48.9-92.9,76.9-153.9,76.9s-117-28-153.7-76.9c-4.5-6-11.7-9.6-19.2-9.6c-7.6,0-14.7,3.6-19.2,9.6
			c-36.7,48.9-92.7,76.9-153.7,76.9s-117-28-153.7-76.9c-4.5-6-11.7-9.6-19.2-9.6s-14.7,3.6-19.2,9.6C420,1764,364,1792,303,1792
			c-106,0-192.2-86.2-192.2-192.2c0-61,28-117,76.9-153.7c6-4.5,9.6-11.7,9.6-19.2c0-7.6-3.6-14.7-9.6-19.2
			c-48.9-36.7-76.9-92.7-76.9-153.7c0-106,86.2-192.2,192.2-192.2c12.9,0,25.9,1.3,38.5,3.9c1.6,0.3,3.2,0.5,4.8,0.5
			c5.5,0,10.9-1.9,15.2-5.4c5.6-4.6,8.8-11.4,8.8-18.6V802.3h1249.1V1042c0,7.2,3.2,14,8.8,18.6c4.3,3.5,9.7,5.4,15.2,5.4
			c1.6,0,3.2-0.2,4.8-0.5c12.6-2.6,25.6-3.9,38.5-3.9c106,0,192.2,86.2,192.2,192.2c0,61-28,117-76.9,153.7
			c-6,4.5-9.6,11.7-9.6,19.2c0,7.6,3.6,14.7,9.6,19.2c48.9,36.7,76.9,92.7,76.9,153.7C1878.6,1705.8,1792.4,1792,1686.4,1792z"/>
		<path d="M1595.1,826.3V1042c0,14.4,6.5,28.1,17.6,37.2c8.7,7.1,19.4,10.8,30.4,10.8c3.2,0,6.4-0.3,9.6-1c11-2.2,22.4-3.4,33.7-3.4
			c92.7,0,168.1,75.4,168.1,168.1c0,53.4-24.5,102.4-67.3,134.5c-12.1,9.1-19.2,23.3-19.2,38.4s7.1,29.3,19.2,38.4
			c42.8,32.1,67.3,81.2,67.3,134.5c0,92.7-75.4,168.1-168.1,168.1c-53.4,0-102.4-24.5-134.5-67.3c-9.1-12.1-23.3-19.2-38.4-19.2
			s-29.3,7.1-38.4,19.2c-32.1,42.8-81.2,67.3-134.5,67.3s-102.4-24.5-134.5-67.3c-9.1-12.1-23.3-19.2-38.4-19.2s-29.3,7.1-38.4,19.2
			c-32.1,42.8-81.2,67.3-134.5,67.3s-102.4-24.5-134.5-67.3c-9.1-12.1-23.3-19.2-38.4-19.2s-29.3,7.1-38.4,19.2
			c-32.1,42.8-81.2,67.3-134.5,67.3c-53.4,0-102.4-24.5-134.5-67.3c-9.1-12.1-23.3-19.2-38.4-19.2c-15.1,0-29.3,7.1-38.4,19.2
			c-32.1,42.8-81.2,67.3-134.5,67.3c-92.7,0-168.1-75.4-168.1-168.1c0-53.4,24.5-102.4,67.3-134.5c12.1-9.1,19.2-23.3,19.2-38.4
			s-7.1-29.3-19.2-38.4c-42.8-32.1-67.3-81.2-67.3-134.5c0-92.7,75.4-168.1,168.1-168.1c11.3,0,22.7,1.1,33.7,3.4
			c3.2,0.6,6.4,1,9.6,1c11,0,21.8-3.8,30.4-10.8c11.2-9.1,17.6-22.8,17.6-37.2V826.3H1595.1 M1643.2,778.3H346V1042
			c-14-2.8-28.4-4.3-43.2-4.3c-119.4,0-216.2,96.8-216.2,216.2c0,70.7,34,133.5,86.5,173c-52.5,39.4-86.5,102.2-86.5,173
			c0,119.4,96.8,216.2,216.2,216.2c70.7,0,133.5-34,173-86.5c39.4,52.5,102.2,86.5,173,86.5s133.5-34,173-86.5
			c39.4,52.5,102.2,86.5,173,86.5s133.5-34,173-86.5c39.4,52.5,102.2,86.5,173,86.5s133.5-34,173-86.5
			c39.4,52.5,102.2,86.5,173,86.5c119.4,0,216.2-96.8,216.2-216.2c0-70.7-34-133.5-86.5-173c52.5-39.4,86.5-102.2,86.5-173
			c0-119.4-96.8-216.2-216.2-216.2c-14.8,0-29.3,1.5-43.2,4.3V778.3H1643.2z"/>
	</g>
	<g>
		<path class="st7" d="M1686.4,1100.2c-27.4,0-50.3-18.9-74.5-38.9c-27-22.3-57.6-47.5-98.4-47.5s-71.4,25.3-98.4,47.5
			c-24.2,20-47.2,38.9-74.5,38.9s-50.3-18.9-74.5-38.9c-27-22.3-57.6-47.5-98.4-47.5s-71.4,25.3-98.4,47.5
			c-24.2,20-47.2,38.9-74.5,38.9s-50.3-18.9-74.5-38.9c-27-22.3-57.6-47.5-98.4-47.5s-71.4,25.3-98.4,47.5
			c-24.2,20-47.2,38.9-74.5,38.9s-50.3-18.9-74.5-38.9c-27-22.3-57.6-47.5-98.4-47.5c-40.9,0-71.4,25.3-98.4,47.5
			c-24.2,20-47.2,38.9-74.5,38.9c-106.4,0-192.6-86.2-192.6-192.2c0-61,28-117,76.9-153.7c6-4.5,9.6-11.7,9.6-19.2
			s-3.6-14.7-9.6-19.2c-48.9-36.8-76.9-92.8-76.9-153.8s28-117,76.9-153.7c6-4.5,9.6-11.7,9.6-19.2s-3.6-14.7-9.6-19.2
			c-48.9-36.8-76.9-92.8-76.9-153.8c0-106,86.2-192.2,192.2-192.2c61,0,117,28,153.7,76.9c4.5,6,11.7,9.6,19.2,9.6
			s14.7-3.6,19.2-9.6C531.7,52,587.7,24,648.7,24s117,28,153.7,76.9c4.5,6,11.7,9.6,19.2,9.6c7.6,0,14.7-3.6,19.2-9.6
			C877.6,52,933.6,24,994.6,24s117,28,153.7,76.9c4.5,6,11.7,9.6,19.2,9.6c7.6,0,14.7-3.6,19.2-9.6C1223.5,52,1279.5,24,1340.5,24
			s117,28,153.7,76.9c4.5,6,11.7,9.6,19.2,9.6c7.6,0,14.7-3.6,19.2-9.6C1569.4,52,1625.4,24,1686.4,24c106,0,192.2,86.2,192.2,192.2
			c0,61-28,117-76.9,153.7c-6,4.5-9.6,11.7-9.6,19.2s3.6,14.7,9.6,19.2c48.9,36.7,76.9,92.7,76.9,153.7s-28,117-76.9,153.7
			c-6,4.5-9.6,11.7-9.6,19.2s3.6,14.7,9.6,19.2c48.9,36.9,76.9,92.9,76.9,153.9C1878.6,1014,1792.4,1100.2,1686.4,1100.2z"/>
		<path d="M1686.4,48c92.7,0,168.1,75.4,168.1,168.1c0,53.4-24.5,102.4-67.3,134.5c-12.1,9.1-19.2,23.3-19.2,38.4
			s7.1,29.3,19.2,38.4c42.8,32.1,67.3,81.2,67.3,134.5c0,53.4-24.5,102.4-67.3,134.5c-12.1,9.1-19.2,23.3-19.2,38.4
			c0,15.1,7.1,29.3,19.2,38.4c42.8,32.1,67.3,81.2,67.3,134.5c0,92.7-75.4,168.1-168.1,168.1c-17.5,0-34-12.6-59.2-33.4
			c-28.6-23.6-64.2-53-113.7-53s-85.1,29.4-113.7,53c-25.2,20.8-41.8,33.4-59.2,33.4s-34-12.6-59.2-33.4
			c-28.6-23.6-64.2-53-113.7-53s-85.1,29.4-113.7,53c-25.2,20.8-41.8,33.4-59.2,33.4s-34-12.6-59.2-33.4
			c-28.6-23.6-64.2-53-113.7-53s-85.1,29.4-113.7,53c-25.2,20.8-41.8,33.4-59.2,33.4c-17.5,0-34-12.6-59.2-33.4
			c-28.6-23.6-64.2-53-113.7-53s-85.1,29.4-113.7,53c-25.2,20.8-41.8,33.4-59.2,33.4c-92.7,0-168.1-75.4-168.1-168.1
			c0-53.4,24.5-102.4,67.3-134.5c12.1-9.1,19.2-23.3,19.2-38.4c0-15.1-7.1-29.3-19.2-38.4c-42.8-32.1-67.3-81.2-67.3-134.5
			c0-53.4,24.5-102.4,67.3-134.5c12.1-9.1,19.2-23.3,19.2-38.4s-7.1-29.3-19.2-38.4c-42.8-32.1-67.3-81.2-67.3-134.5
			C134.6,123.5,210.1,48,302.8,48c53.4,0,102.4,24.5,134.5,67.3c9.1,12.1,23.3,19.2,38.4,19.2c15.1,0,29.3-7.1,38.4-19.2
			C546.3,72.6,595.3,48,648.7,48c53.4,0,102.4,24.5,134.5,67.3c9.1,12.1,23.3,19.2,38.4,19.2s29.3-7.1,38.4-19.2
			C892.2,72.6,941.2,48,994.6,48s102.4,24.5,134.5,67.3c9.1,12.1,23.3,19.2,38.4,19.2s29.3-7.1,38.4-19.2
			C1238,72.5,1287.1,48,1340.4,48s102.4,24.5,134.5,67.3c9.1,12.1,23.3,19.2,38.4,19.2s29.3-7.1,38.4-19.2
			C1584,72.6,1633,48,1686.4,48 M1686.4,0c-70.7,0-133.5,34-173,86.5C1474,34,1411.2,0,1340.5,0s-133.5,34-173,86.5
			C1128.1,34,1065.3,0,994.6,0s-133.5,34-173,86.5C782.2,34,719.4,0,648.7,0s-133.5,34-173,86.5C436.3,34,373.5,0,302.8,0
			C183.4,0,86.6,96.8,86.6,216.2c0,70.7,34,133.5,86.5,173c-52.5,39.4-86.5,102.2-86.5,172.9s34,133.5,86.5,173
			C120.6,774.5,86.6,837.3,86.6,908c0,119.4,96.8,216.2,216.2,216.2c70.7,0,107.3-86.5,173-86.5s102.2,86.5,173,86.5
			s107.3-86.5,173-86.5s102.2,86.5,173,86.5s107.3-86.5,173-86.5s102.2,86.5,173,86.5s107.3-86.5,173-86.5s102.2,86.5,173,86.5
			c119.4,0,216.2-96.8,216.2-216.2c0-70.7-34-133.5-86.5-173c52.5-39.4,86.5-102.2,86.5-173s-34-133.5-86.5-173
			c52.5-39.4,86.5-102.2,86.5-173C1902.6,96.8,1805.8,0,1686.4,0L1686.4,0z"/>
	</g>
	<g>
		<path class="st3" d="M999.4,1557.6c-11.8,0-22.9-4.6-31.2-12.9l-66.3-66.3c-10.9-10.9-15.4-27-11.6-41.9l64.8-259.4l-26.9-26.9
			c-12.7-12.7-16.4-31.6-9.6-48.1c6.9-16.6,22.9-27.3,40.8-27.3h80c17.9,0,33.9,10.7,40.8,27.3c6.9,16.6,3.1,35.4-9.6,48.1
			l-26.9,26.9l64.8,259.4c3.7,15-0.7,31-11.6,41.9l-66.3,66.3C1022.3,1553,1011.2,1557.6,999.4,1557.6z"/>
		<path d="M1039.4,1098.8c17.9,0,26.9,21.7,14.2,34.4l-28.5,28.5c-5,5-7,12.3-5.3,19.1l65.4,261.5c1.7,6.9-0.3,14.1-5.3,19.1
			l-66.3,66.3c-3.9,3.9-9.1,5.9-14.2,5.9s-10.3-2-14.2-5.9l-66.3-66.3c-5-5-7-12.3-5.3-19.1l65.4-261.5c1.7-6.9-0.3-14.1-5.3-19.1
			l-28.5-28.5c-12.7-12.7-3.7-34.4,14.2-34.4H1039.4 M1039.4,1050.7h-80c-27.7,0-52.4,16.5-63,42.1c-10.6,25.6-4.8,54.7,14.8,74.3
			l17.3,17.3L867,1430.6c-5.8,23.1,1.1,47.9,17.9,64.8l66.3,66.3c12.9,12.9,30,20,48.2,20s35.3-7.1,48.2-20l66.3-66.3
			c16.8-16.8,23.7-41.7,17.9-64.8l-61.6-246.2l17.3-17.3c19.6-19.6,25.4-48.7,14.8-74.3C1091.8,1067.2,1067.1,1050.7,1039.4,1050.7
			L1039.4,1050.7z"/>
	</g>
	<circle cx="480.5" cy="389.1" r="43.2"/>
	<circle cx="826.5" cy="389.1" r="43.2"/>
	<circle cx="1172.4" cy="389.1" r="43.2"/>
	<circle cx="1518.3" cy="389.1" r="43.2"/>
	<circle cx="480.5" cy="735" r="43.2"/>
	<circle cx="826.5" cy="735" r="43.2"/>
	<circle cx="1172.4" cy="735" r="43.2"/>
	<circle cx="1518.3" cy="735" r="43.2"/>
	<text transform="matrix(1 0 0 1 0 2131.2734)" class="st3 st8 st9">Crack your internship with</text>
	<text transform="matrix(1 0 0 1 164.2 2481.2734)" class="st10 st11">CRACKER</text>
</g>
</svg>
