<?xml version="1.0" encoding="utf-8"?>
<!-- Generator: Adobe Illustrator 21.1.0, SVG Export Plug-In . SVG Version: 6.00 Build 0)  -->
<svg version="1.1" xmlns="http://www.w3.org/2000/svg" xmlns:xlink="http://www.w3.org/1999/xlink" x="0px" y="0px"
	 viewBox="0 0 441 336" style="enable-background:new 0 0 441 336;" xml:space="preserve">
<style type="text/css">
	.st0{display:none;}
	.st1{display:inline;}
	
		.st2{display:inline;fill:#FFFFFF;stroke:#000000;stroke-width:5;stroke-linecap:round;stroke-linejoin:round;stroke-miterlimit:10;}
	.st3{fill:#FF0000;}
	
		.st4{display:inline;fill:#FFCF57;stroke:#000000;stroke-width:5;stroke-linecap:round;stroke-linejoin:round;stroke-miterlimit:10;}
	.st5{display:inline;fill:#C17121;}
	.st6{fill:#FFFFFF;}
	.st7{fill:#FFCF57;}
</style>
<g id="Layer_1" class="st0">
	<circle class="st1" cx="162" cy="198.5" r="4.5"/>
	<circle class="st1" cx="198" cy="198.5" r="4.5"/>
	<circle class="st1" cx="234" cy="198.5" r="4.5"/>
	<circle class="st1" cx="270" cy="198.5" r="4.5"/>
	<circle class="st1" cx="162" cy="234.5" r="4.5"/>
	<circle class="st1" cx="198" cy="234.5" r="4.5"/>
	<circle class="st1" cx="234" cy="234.5" r="4.5"/>
	<circle class="st1" cx="270" cy="234.5" r="4.5"/>
	<path class="st2" d="M130.5,198.5c-5.5,4.1-9,10.6-9,18s3.5,13.9,9,18c-5.5,4.1-9,10.6-9,18c0,12.4,10.1,22.5,22.5,22.5
		c7.4,0,13.9-3.5,18-9c4.1,5.5,10.6,9,18,9s13.9-3.5,18-9c4.1,5.5,10.6,9,18,9s13.9-3.5,18-9c4.1,5.5,10.6,9,18,9s13.9-3.5,18-9
		c4.1,5.5,10.6,9,18,9c12.4,0,22.5-10.1,22.5-22.5c0-7.4-3.5-13.9-9-18c5.5-4.1,9-10.6,9-18s-3.5-13.9-9-18c2.9-2.2,5.3-5.1,6.9-8.5
		H123.6C125.2,193.4,127.6,196.3,130.5,198.5z"/>
	<g class="st1">
		<path class="st3" d="M216,245.5c-1.3,0-2.6-0.5-3.5-1.5l-8.2-8.2c-1.2-1.2-1.7-3.1-1.3-4.7l8.1-32.5l-3.5-3.5
			c-1.4-1.4-1.9-3.6-1.1-5.4c0.8-1.9,2.6-3.1,4.6-3.1h9.9c2,0,3.8,1.2,4.6,3.1s0.4,4-1.1,5.4l-3.5,3.5l8.1,32.5
			c0.4,1.7-0.1,3.5-1.3,4.7l-8.2,8.2C218.6,244.9,217.3,245.5,216,245.5z"/>
		<path d="M221,189c2.2,0,3.3,2.7,1.8,4.3l-3.5,3.5c-0.6,0.6-0.9,1.5-0.7,2.4l8.1,32.5c0.2,0.9,0,1.8-0.7,2.4l-8.2,8.2
			c-0.5,0.5-1.1,0.7-1.8,0.7s-1.3-0.2-1.8-0.7L206,234c-0.6-0.6-0.9-1.5-0.7-2.4l8.1-32.5c0.2-0.9,0-1.8-0.7-2.4l-3.5-3.5
			c-1.6-1.6-0.5-4.3,1.8-4.3H221 M221,184H211c-3,0-5.8,1.8-6.9,4.6c-1.2,2.8-0.5,6,1.6,8.2l2.5,2.5l-7.8,31.1
			c-0.6,2.5,0.1,5.3,2,7.1l8.2,8.2c1.4,1.4,3.3,2.2,5.3,2.2s3.9-0.8,5.3-2.2l8.2-8.2c1.9-1.9,2.6-4.6,2-7.1l-7.8-31.1l2.5-2.5
			c2.2-2.2,2.8-5.4,1.6-8.2C226.7,185.8,224,184,221,184L221,184z"/>
	</g>
	<path class="st4" d="M310.5,180.5c0-7.4-3.5-13.9-9-18c5.5-4.1,9-10.6,9-18s-3.5-13.9-9-18c5.5-4.1,9-10.6,9-18
		c0-12.4-10.1-22.5-22.5-22.5c-7.4,0-13.9,3.5-18,9c-4.1-5.5-10.6-9-18-9s-13.9,3.5-18,9c-4.1-5.5-10.6-9-18-9s-13.9,3.5-18,9
		c-4.1-5.5-10.6-9-18-9s-13.9,3.5-18,9c-4.1-5.5-10.6-9-18-9c-12.4,0-22.5,10.1-22.5,22.5c0,7.4,3.5,13.9,9,18c-5.5,4.1-9,10.6-9,18
		s3.5,13.9,9,18c-5.5,4.1-9,10.6-9,18c0,3.4,0.8,6.6,2.1,9.5h184.8C309.7,187.1,310.5,183.9,310.5,180.5z"/>
	<circle class="st5" cx="162" cy="126.5" r="4.5"/>
	<circle class="st5" cx="198" cy="126.5" r="4.5"/>
	<circle class="st5" cx="234" cy="126.5" r="4.5"/>
	<circle class="st5" cx="270" cy="126.5" r="4.5"/>
	<circle class="st5" cx="162" cy="162.5" r="4.5"/>
	<circle class="st5" cx="198" cy="162.5" r="4.5"/>
	<circle class="st5" cx="234" cy="162.5" r="4.5"/>
	<circle class="st5" cx="270" cy="162.5" r="4.5"/>
	<rect x="129" y="328" class="st5" width="201" height="9"/>
</g>
<g id="Layer_2">
	<g>
		<path class="st6" d="M2078.8,1761c-61,0-117-28-153.7-76.9c-4.5-6-11.7-9.6-19.2-9.6c-7.6,0-14.7,3.6-19.2,9.6
			c-36.7,48.9-92.7,76.9-153.7,76.9s-117-28-153.7-76.9c-4.5-6-11.7-9.6-19.2-9.6c-7.6,0-14.7,3.6-19.2,9.6
			C1504,1733,1448,1761,1387,1761s-117-28-153.7-76.9c-4.5-6-11.7-9.6-19.2-9.6c-7.6,0-14.7,3.6-19.2,9.6
			c-36.7,48.9-92.7,76.9-153.7,76.9s-117-28-153.7-76.9c-4.5-6-11.7-9.6-19.2-9.6s-14.7,3.6-19.2,9.6
			c-36.7,48.9-92.7,76.9-153.7,76.9c-106,0-192.2-86.2-192.2-192.2c0-61,28-117,76.9-153.7c6-4.5,9.6-11.7,9.6-19.2
			c0-7.6-3.6-14.7-9.6-19.2c-48.9-36.7-76.9-92.7-76.9-153.7c0-106,86.2-192.2,192.2-192.2c12.9,0,25.9,1.3,38.5,3.9
			c1.6,0.3,3.2,0.5,4.8,0.5c5.5,0,10.9-1.9,15.2-5.4c5.6-4.6,8.8-11.4,8.8-18.6V771.3h1249.1V1011c0,7.2,3.2,14,8.8,18.6
			c4.3,3.5,9.7,5.4,15.2,5.4c1.6,0,3.2-0.2,4.8-0.5c12.6-2.6,25.6-3.9,38.5-3.9c106,0,192.2,86.2,192.2,192.2
			c0,61-28,117-76.9,153.7c-6,4.5-9.6,11.7-9.6,19.2c0,7.6,3.6,14.7,9.6,19.2c48.9,36.7,76.9,92.7,76.9,153.7
			C2271,1674.8,2184.8,1761,2078.8,1761z"/>
		<path d="M1987.5,795.3V1011c0,14.4,6.5,28.1,17.6,37.2c8.7,7.1,19.4,10.8,30.4,10.8c3.2,0,6.4-0.3,9.6-1c11-2.2,22.4-3.4,33.7-3.4
			c92.7,0,168.1,75.4,168.1,168.1c0,53.4-24.5,102.4-67.3,134.5c-12.1,9.1-19.2,23.3-19.2,38.4c0,15.1,7.1,29.3,19.2,38.4
			c42.8,32.1,67.3,81.2,67.3,134.5c0,92.7-75.4,168.1-168.1,168.1c-53.4,0-102.4-24.5-134.5-67.3c-9.1-12.1-23.3-19.2-38.4-19.2
			c-15.1,0-29.3,7.1-38.4,19.2c-32.1,42.8-81.2,67.3-134.5,67.3s-102.4-24.5-134.5-67.3c-9.1-12.1-23.3-19.2-38.4-19.2
			s-29.3,7.1-38.4,19.2c-32.1,42.8-81.2,67.3-134.5,67.3s-102.4-24.5-134.5-67.3c-9.1-12.1-23.3-19.2-38.4-19.2s-29.3,7.1-38.4,19.2
			c-32.1,42.8-81.2,67.3-134.5,67.3c-53.4,0-102.4-24.5-134.5-67.3c-9.1-12.1-23.3-19.2-38.4-19.2c-15.1,0-29.3,7.1-38.4,19.2
			c-32.1,42.8-81.2,67.3-134.5,67.3c-92.7,0-168.1-75.4-168.1-168.1c0-53.4,24.5-102.4,67.3-134.5c12.1-9.1,19.2-23.3,19.2-38.4
			c0-15.1-7.1-29.3-19.2-38.4c-42.8-32.1-67.3-81.2-67.3-134.5c0-92.7,75.4-168.1,168.1-168.1c11.3,0,22.7,1.1,33.7,3.4
			c3.2,0.6,6.4,1,9.6,1c11,0,21.8-3.8,30.4-10.8c11.2-9.1,17.6-22.8,17.6-37.2V795.3H1987.5 M2035.6,747.3H738.4V1011
			c-14-2.8-28.4-4.3-43.2-4.3c-119.4,0-216.2,96.8-216.2,216.2c0,70.7,34,133.5,86.5,173c-52.5,39.4-86.5,102.2-86.5,173
			c0,119.4,96.8,216.2,216.2,216.2c70.7,0,133.5-34,173-86.5c39.4,52.5,102.2,86.5,173,86.5s133.5-34,173-86.5
			c39.4,52.5,102.2,86.5,173,86.5s133.5-34,173-86.5c39.4,52.5,102.2,86.5,173,86.5s133.5-34,173-86.5
			c39.4,52.5,102.2,86.5,173,86.5c119.4,0,216.2-96.8,216.2-216.2c0-70.7-34-133.5-86.5-173c52.5-39.4,86.5-102.2,86.5-173
			c0-119.4-96.8-216.2-216.2-216.2c-14.8,0-29.3,1.5-43.2,4.3V747.3L2035.6,747.3z"/>
	</g>
	<g>
		<path class="st7" d="M2078.8,1069.2c-27.4,0-50.3-18.9-74.5-38.9c-27-22.3-57.6-47.5-98.4-47.5s-71.4,25.3-98.4,47.5
			c-24.2,20-47.2,38.9-74.5,38.9s-50.3-18.9-74.5-38.9c-27-22.3-57.6-47.5-98.4-47.5s-71.4,25.3-98.4,47.5
			c-24.2,20-47.2,38.9-74.5,38.9s-50.3-18.9-74.5-38.9c-27-22.3-57.6-47.5-98.4-47.5s-71.4,25.3-98.4,47.5
			c-24.2,20-47.2,38.9-74.5,38.9s-50.3-18.9-74.5-38.9c-27-22.3-57.6-47.5-98.4-47.5c-40.9,0-71.4,25.3-98.4,47.5
			c-24.2,20-47.2,38.9-74.5,38.9C589.2,1069.2,503,983,503,877c0-61,28-117,76.9-153.7c6-4.5,9.6-11.7,9.6-19.2s-3.6-14.7-9.6-19.2
			C531,648.1,503,592.1,503,531.1s28-117,76.9-153.7c6-4.5,9.6-11.7,9.6-19.2s-3.6-14.7-9.6-19.2C531,302.2,503,246.2,503,185.2
			C503,79.2,589.2-7,695.2-7c61,0,117,28,153.7,76.9c4.5,6,11.7,9.6,19.2,9.6s14.7-3.6,19.2-9.6C924.1,21,980.1-7,1041.1-7
			c61,0,117,28,153.7,76.9c4.5,6,11.7,9.6,19.2,9.6c7.6,0,14.7-3.6,19.2-9.6C1270,21,1326-7,1387-7c61,0,117,28,153.7,76.9
			c4.5,6,11.7,9.6,19.2,9.6c7.6,0,14.7-3.6,19.2-9.6C1615.9,21,1671.9-7,1732.9-7s117,28,153.7,76.9c4.5,6,11.7,9.6,19.2,9.6
			c7.6,0,14.7-3.6,19.2-9.6C1961.8,21,2017.8-7,2078.8-7c106,0,192.2,86.2,192.2,192.2c0,61-28,117-76.9,153.7
			c-6,4.5-9.6,11.7-9.6,19.2s3.6,14.7,9.6,19.2c48.9,36.7,76.9,92.7,76.9,153.7s-28,117-76.9,153.7c-6,4.5-9.6,11.7-9.6,19.2
			s3.6,14.7,9.6,19.2C2243,760,2271,816,2271,877C2271,983,2184.8,1069.2,2078.8,1069.2z"/>
		<path d="M2078.8,17c92.7,0,168.1,75.4,168.1,168.1c0,53.4-24.5,102.4-67.3,134.5c-12.1,9.1-19.2,23.3-19.2,38.4
			c0,15.1,7.1,29.3,19.2,38.4c42.8,32.1,67.3,81.2,67.3,134.5c0,53.4-24.5,102.4-67.3,134.5c-12.1,9.1-19.2,23.3-19.2,38.4
			c0,15.1,7.1,29.3,19.2,38.4c42.8,32.1,67.3,81.2,67.3,134.5c0,92.7-75.4,168.1-168.1,168.1c-17.5,0-34-12.6-59.2-33.4
			c-28.6-23.6-64.2-53-113.7-53c-49.5,0-85.1,29.4-113.7,53c-25.2,20.8-41.8,33.4-59.2,33.4s-34-12.6-59.2-33.4
			c-28.6-23.6-64.2-53-113.7-53s-85.1,29.4-113.7,53c-25.2,20.8-41.8,33.4-59.2,33.4s-34-12.6-59.2-33.4
			c-28.6-23.6-64.2-53-113.7-53s-85.1,29.4-113.7,53c-25.2,20.8-41.8,33.4-59.2,33.4c-17.5,0-34-12.6-59.2-33.4
			c-28.6-23.6-64.2-53-113.7-53c-49.5,0-85.1,29.4-113.7,53c-25.2,20.8-41.8,33.4-59.2,33.4c-92.7,0-168.1-75.4-168.1-168.1
			c0-53.4,24.5-102.4,67.3-134.5c12.1-9.1,19.2-23.3,19.2-38.4c0-15.1-7.1-29.3-19.2-38.4c-42.8-32.1-67.3-81.2-67.3-134.5
			c0-53.4,24.5-102.4,67.3-134.5c12.1-9.1,19.2-23.3,19.2-38.4c0-15.1-7.1-29.3-19.2-38.4c-42.8-32.1-67.3-81.2-67.3-134.5
			C527,92.5,602.5,17,695.2,17c53.4,0,102.4,24.5,134.5,67.3c9.1,12.1,23.3,19.2,38.4,19.2c15.1,0,29.3-7.1,38.4-19.2
			C938.7,41.6,987.7,17,1041.1,17s102.4,24.5,134.5,67.3c9.1,12.1,23.3,19.2,38.4,19.2c15.1,0,29.3-7.1,38.4-19.2
			C1284.6,41.6,1333.6,17,1387,17s102.4,24.5,134.5,67.3c9.1,12.1,23.3,19.2,38.4,19.2c15.1,0,29.3-7.1,38.4-19.2
			c32.1-42.8,81.2-67.3,134.5-67.3s102.4,24.5,134.5,67.3c9.1,12.1,23.3,19.2,38.4,19.2c15.1,0,29.3-7.1,38.4-19.2
			C1976.4,41.6,2025.4,17,2078.8,17 M2078.8-31c-70.7,0-133.5,34-173,86.5C1866.4,3,1803.6-31,1732.9-31s-133.5,34-173,86.5
			C1520.5,3,1457.7-31,1387-31s-133.5,34-173,86.5C1174.6,3,1111.8-31,1041.1-31s-133.5,34-173,86.5C828.7,3,765.9-31,695.2-31
			C575.8-31,479,65.8,479,185.2c0,70.7,34,133.5,86.5,173C513,397.6,479,460.4,479,531.1s34,133.5,86.5,173
			C513,743.5,479,806.3,479,877c0,119.4,96.8,216.2,216.2,216.2c70.7,0,107.3-86.5,173-86.5s102.2,86.5,173,86.5
			s107.3-86.5,173-86.5c65.7,0,102.2,86.5,173,86.5s107.3-86.5,173-86.5c65.7,0,102.2,86.5,173,86.5s107.3-86.5,173-86.5
			c65.7,0,102.2,86.5,173,86.5c119.4,0,216.2-96.8,216.2-216.2c0-70.7-34-133.5-86.5-173c52.5-39.4,86.5-102.2,86.5-173
			s-34-133.5-86.5-173c52.5-39.4,86.5-102.2,86.5-173C2295,65.8,2198.2-31,2078.8-31L2078.8-31z"/>
	</g>
	<g>
		<path class="st3" d="M1391.8,1526.6c-11.8,0-22.9-4.6-31.2-12.9l-66.3-66.3c-10.9-10.9-15.4-27-11.6-41.9l64.8-259.4l-26.9-26.9
			c-12.7-12.7-16.4-31.6-9.6-48.1c6.9-16.6,22.9-27.3,40.8-27.3h80c17.9,0,33.9,10.7,40.8,27.3c6.9,16.6,3.1,35.4-9.6,48.1
			l-26.9,26.9l64.8,259.4c3.7,15-0.7,31-11.6,41.9l-66.3,66.3C1414.7,1522,1403.6,1526.6,1391.8,1526.6z"/>
		<path d="M1431.8,1067.8c17.9,0,26.9,21.7,14.2,34.4l-28.5,28.5c-5,5-7,12.3-5.3,19.1l65.4,261.5c1.7,6.9-0.3,14.1-5.3,19.1
			l-66.3,66.3c-3.9,3.9-9.1,5.9-14.2,5.9s-10.3-2-14.2-5.9l-66.3-66.3c-5-5-7-12.3-5.3-19.1l65.4-261.5c1.7-6.9-0.3-14.1-5.3-19.1
			l-28.5-28.5c-12.7-12.7-3.7-34.4,14.2-34.4H1431.8 M1431.8,1019.7h-80c-27.7,0-52.4,16.5-63,42.1c-10.6,25.6-4.8,54.7,14.8,74.3
			l17.3,17.3l-61.5,246.2c-5.8,23.1,1.1,47.9,17.9,64.8l66.3,66.3c12.9,12.9,30,20,48.2,20c18.2,0,35.3-7.1,48.2-20l66.3-66.3
			c16.8-16.8,23.7-41.7,17.9-64.8l-61.6-246.2l17.3-17.3c19.6-19.6,25.4-48.7,14.8-74.3C1484.2,1036.2,1459.5,1019.7,1431.8,1019.7
			L1431.8,1019.7z"/>
	</g>
	<circle cx="872.9" cy="358.1" r="43.2"/>
	<circle cx="1218.9" cy="358.1" r="43.2"/>
	<circle cx="1564.8" cy="358.1" r="43.2"/>
	<circle cx="1910.7" cy="358.1" r="43.2"/>
	<circle cx="872.9" cy="704" r="43.2"/>
	<circle cx="1218.9" cy="704" r="43.2"/>
	<circle cx="1564.8" cy="704" r="43.2"/>
	<circle cx="1910.7" cy="704" r="43.2"/>
	<text transform="matrix(1 0 0 1 392.3896 2100.2734)"><tspan x="0" y="0" class="st3" style="font-family:'DidactGothic-Regular'; font-size:180px;">Crack your internship with</tspan><tspan x="164.2" y="350" style="font-family:'BalooBhai-Regular'; font-size:400px;">CRACKER</tspan></text>
</g>
</svg>
