<svg width="1989" height="2689" viewBox="0 0 1989 2689" fill="none" xmlns="http://www.w3.org/2000/svg">
<g clip-path="url(#clip0)">
<path d="M1686.4 1792C1625.4 1792 1569.4 1764 1532.7 1715.1C1528.2 1709.1 1521 1705.5 1513.5 1705.5C1505.9 1705.5 1498.8 1709.1 1494.3 1715.1C1457.6 1764 1401.6 1792 1340.6 1792C1279.6 1792 1223.6 1764 1186.9 1715.1C1182.4 1709.1 1175.2 1705.5 1167.7 1705.5C1160.1 1705.5 1153 1709.1 1148.5 1715.1C1111.6 1764 1055.6 1792 994.6 1792C933.6 1792 877.6 1764 840.9 1715.1C836.4 1709.1 829.2 1705.5 821.7 1705.5C814.1 1705.5 807 1709.1 802.5 1715.1C765.8 1764 709.8 1792 648.8 1792C587.8 1792 531.8 1764 495.1 1715.1C490.6 1709.1 483.4 1705.5 475.9 1705.5C468.4 1705.5 461.2 1709.1 456.7 1715.1C420 1764 364 1792 303 1792C197 1792 110.8 1705.8 110.8 1599.8C110.8 1538.8 138.8 1482.8 187.7 1446.1C193.7 1441.6 197.3 1434.4 197.3 1426.9C197.3 1419.3 193.7 1412.2 187.7 1407.7C138.8 1371 110.8 1315 110.8 1254C110.8 1148 197 1061.8 303 1061.8C315.9 1061.8 328.9 1063.1 341.5 1065.7C343.1 1066 344.7 1066.2 346.3 1066.2C351.8 1066.2 357.2 1064.3 361.5 1060.8C367.1 1056.2 370.3 1049.4 370.3 1042.2V802.3H1619.4V1042C1619.4 1049.2 1622.6 1056 1628.2 1060.6C1632.5 1064.1 1637.9 1066 1643.4 1066C1645 1066 1646.6 1065.8 1648.2 1065.5C1660.8 1062.9 1673.8 1061.6 1686.7 1061.6C1792.7 1061.6 1878.9 1147.8 1878.9 1253.8C1878.9 1314.8 1850.9 1370.8 1802 1407.5C1796 1412 1792.4 1419.2 1792.4 1426.7C1792.4 1434.3 1796 1441.4 1802 1445.9C1850.9 1482.6 1878.9 1538.6 1878.9 1599.6C1878.6 1705.8 1792.4 1792 1686.4 1792Z" fill="white"/>
<path d="M1595.1 826.3V1042C1595.1 1056.4 1601.6 1070.1 1612.7 1079.2C1621.4 1086.3 1632.1 1090 1643.1 1090C1646.3 1090 1649.5 1089.7 1652.7 1089C1663.7 1086.8 1675.1 1085.6 1686.4 1085.6C1779.1 1085.6 1854.5 1161 1854.5 1253.7C1854.5 1307.1 1830 1356.1 1787.2 1388.2C1775.1 1397.3 1768 1411.5 1768 1426.6C1768 1441.7 1775.1 1455.9 1787.2 1465C1830 1497.1 1854.5 1546.2 1854.5 1599.5C1854.5 1692.2 1779.1 1767.6 1686.4 1767.6C1633 1767.6 1584 1743.1 1551.9 1700.3C1542.8 1688.2 1528.6 1681.1 1513.5 1681.1C1498.4 1681.1 1484.2 1688.2 1475.1 1700.3C1443 1743.1 1393.9 1767.6 1340.6 1767.6C1287.3 1767.6 1238.2 1743.1 1206.1 1700.3C1197 1688.2 1182.8 1681.1 1167.7 1681.1C1152.6 1681.1 1138.4 1688.2 1129.3 1700.3C1097.2 1743.1 1048.1 1767.6 994.8 1767.6C941.5 1767.6 892.4 1743.1 860.3 1700.3C851.2 1688.2 837 1681.1 821.9 1681.1C806.8 1681.1 792.6 1688.2 783.5 1700.3C751.4 1743.1 702.3 1767.6 649 1767.6C595.6 1767.6 546.6 1743.1 514.5 1700.3C505.4 1688.2 491.2 1681.1 476.1 1681.1C461 1681.1 446.8 1688.2 437.7 1700.3C405.6 1743.1 356.5 1767.6 303.2 1767.6C210.5 1767.6 135.1 1692.2 135.1 1599.5C135.1 1546.1 159.6 1497.1 202.4 1465C214.5 1455.9 221.6 1441.7 221.6 1426.6C221.6 1411.5 214.5 1397.3 202.4 1388.2C159.6 1356.1 135.1 1307 135.1 1253.7C135.1 1161 210.5 1085.6 303.2 1085.6C314.5 1085.6 325.9 1086.7 336.9 1089C340.1 1089.6 343.3 1090 346.5 1090C357.5 1090 368.3 1086.2 376.9 1079.2C388.1 1070.1 394.5 1056.4 394.5 1042V826.3H1595.1ZM1643.2 778.3H346V1042C332 1039.2 317.6 1037.7 302.8 1037.7C183.4 1037.7 86.6 1134.5 86.6 1253.9C86.6 1324.6 120.6 1387.4 173.1 1426.9C120.6 1466.3 86.6 1529.1 86.6 1599.9C86.6 1719.3 183.4 1816.1 302.8 1816.1C373.5 1816.1 436.3 1782.1 475.8 1729.6C515.2 1782.1 578 1816.1 648.8 1816.1C719.6 1816.1 782.3 1782.1 821.8 1729.6C861.2 1782.1 924 1816.1 994.8 1816.1C1065.6 1816.1 1128.3 1782.1 1167.8 1729.6C1207.2 1782.1 1270 1816.1 1340.8 1816.1C1411.6 1816.1 1474.3 1782.1 1513.8 1729.6C1553.2 1782.1 1616 1816.1 1686.8 1816.1C1806.2 1816.1 1903 1719.3 1903 1599.9C1903 1529.2 1869 1466.4 1816.5 1426.9C1869 1387.5 1903 1324.7 1903 1253.9C1903 1134.5 1806.2 1037.7 1686.8 1037.7C1672 1037.7 1657.5 1039.2 1643.6 1042V778.3H1643.2Z" fill="black"/>
<path d="M1686.4 1100.2C1659 1100.2 1636.1 1081.3 1611.9 1061.3C1584.9 1039 1554.3 1013.8 1513.5 1013.8C1472.7 1013.8 1442.1 1039.1 1415.1 1061.3C1390.9 1081.3 1367.9 1100.2 1340.6 1100.2C1313.3 1100.2 1290.3 1081.3 1266.1 1061.3C1239.1 1039 1208.5 1013.8 1167.7 1013.8C1126.9 1013.8 1096.3 1039.1 1069.3 1061.3C1045.1 1081.3 1022.1 1100.2 994.8 1100.2C967.5 1100.2 944.5 1081.3 920.3 1061.3C893.3 1039 862.7 1013.8 821.9 1013.8C781.1 1013.8 750.5 1039.1 723.5 1061.3C699.3 1081.3 676.3 1100.2 649 1100.2C621.7 1100.2 598.7 1081.3 574.5 1061.3C547.5 1039 516.9 1013.8 476.1 1013.8C435.2 1013.8 404.7 1039.1 377.7 1061.3C353.5 1081.3 330.5 1100.2 303.2 1100.2C196.8 1100.2 110.6 1014 110.6 908C110.6 847 138.6 791 187.5 754.3C193.5 749.8 197.1 742.6 197.1 735.1C197.1 727.6 193.5 720.4 187.5 715.9C138.6 679.1 110.6 623.1 110.6 562.1C110.6 501.1 138.6 445.1 187.5 408.4C193.5 403.9 197.1 396.7 197.1 389.2C197.1 381.7 193.5 374.5 187.5 370C138.6 333.2 110.6 277.2 110.6 216.2C110.6 110.2 196.8 24 302.8 24C363.8 24 419.8 52 456.5 100.9C461 106.9 468.2 110.5 475.7 110.5C483.2 110.5 490.4 106.9 494.9 100.9C531.7 52 587.7 24 648.7 24C709.7 24 765.7 52 802.4 100.9C806.9 106.9 814.1 110.5 821.6 110.5C829.2 110.5 836.3 106.9 840.8 100.9C877.6 52 933.6 24 994.6 24C1055.6 24 1111.6 52 1148.3 100.9C1152.8 106.9 1160 110.5 1167.5 110.5C1175.1 110.5 1182.2 106.9 1186.7 100.9C1223.5 52 1279.5 24 1340.5 24C1401.5 24 1457.5 52 1494.2 100.9C1498.7 106.9 1505.9 110.5 1513.4 110.5C1521 110.5 1528.1 106.9 1532.6 100.9C1569.4 52 1625.4 24 1686.4 24C1792.4 24 1878.6 110.2 1878.6 216.2C1878.6 277.2 1850.6 333.2 1801.7 369.9C1795.7 374.4 1792.1 381.6 1792.1 389.1C1792.1 396.6 1795.7 403.8 1801.7 408.3C1850.6 445 1878.6 501 1878.6 562C1878.6 623 1850.6 679 1801.7 715.7C1795.7 720.2 1792.1 727.4 1792.1 734.9C1792.1 742.4 1795.7 749.6 1801.7 754.1C1850.6 791 1878.6 847 1878.6 908C1878.6 1014 1792.4 1100.2 1686.4 1100.2Z" fill="#FFCF57"/>
<path d="M1686.4 48C1779.1 48 1854.5 123.4 1854.5 216.1C1854.5 269.5 1830 318.5 1787.2 350.6C1775.1 359.7 1768 373.9 1768 389C1768 404.1 1775.1 418.3 1787.2 427.4C1830 459.5 1854.5 508.6 1854.5 561.9C1854.5 615.3 1830 664.3 1787.2 696.4C1775.1 705.5 1768 719.7 1768 734.8C1768 749.9 1775.1 764.1 1787.2 773.2C1830 805.3 1854.5 854.4 1854.5 907.7C1854.5 1000.4 1779.1 1075.8 1686.4 1075.8C1668.9 1075.8 1652.4 1063.2 1627.2 1042.4C1598.6 1018.8 1563 989.4 1513.5 989.4C1464 989.4 1428.4 1018.8 1399.8 1042.4C1374.6 1063.2 1358 1075.8 1340.6 1075.8C1323.2 1075.8 1306.6 1063.2 1281.4 1042.4C1252.8 1018.8 1217.2 989.4 1167.7 989.4C1118.2 989.4 1082.6 1018.8 1054 1042.4C1028.8 1063.2 1012.2 1075.8 994.8 1075.8C977.4 1075.8 960.8 1063.2 935.6 1042.4C907 1018.8 871.4 989.4 821.9 989.4C772.4 989.4 736.8 1018.8 708.2 1042.4C683 1063.2 666.4 1075.8 649 1075.8C631.5 1075.8 615 1063.2 589.8 1042.4C561.2 1018.8 525.6 989.4 476.1 989.4C426.6 989.4 391 1018.8 362.4 1042.4C337.2 1063.2 320.6 1075.8 303.2 1075.8C210.5 1075.8 135.1 1000.4 135.1 907.7C135.1 854.3 159.6 805.3 202.4 773.2C214.5 764.1 221.6 749.9 221.6 734.8C221.6 719.7 214.5 705.5 202.4 696.4C159.6 664.3 135.1 615.2 135.1 561.9C135.1 508.5 159.6 459.5 202.4 427.4C214.5 418.3 221.6 404.1 221.6 389C221.6 373.9 214.5 359.7 202.4 350.6C159.6 318.5 135.1 269.4 135.1 216.1C134.6 123.5 210.1 48 302.8 48C356.2 48 405.2 72.5 437.3 115.3C446.4 127.4 460.6 134.5 475.7 134.5C490.8 134.5 505 127.4 514.1 115.3C546.3 72.6 595.3 48 648.7 48C702.1 48 751.1 72.5 783.2 115.3C792.3 127.4 806.5 134.5 821.6 134.5C836.7 134.5 850.9 127.4 860 115.3C892.2 72.6 941.2 48 994.6 48C1048 48 1097 72.5 1129.1 115.3C1138.2 127.4 1152.4 134.5 1167.5 134.5C1182.6 134.5 1196.8 127.4 1205.9 115.3C1238 72.5 1287.1 48 1340.4 48C1393.7 48 1442.8 72.5 1474.9 115.3C1484 127.4 1498.2 134.5 1513.3 134.5C1528.4 134.5 1542.6 127.4 1551.7 115.3C1584 72.6 1633 48 1686.4 48ZM1686.4 0C1615.7 0 1552.9 34 1513.4 86.5C1474 34 1411.2 0 1340.5 0C1269.8 0 1207 34 1167.5 86.5C1128.1 34 1065.3 0 994.6 0C923.9 0 861.1 34 821.6 86.5C782.2 34 719.4 0 648.7 0C578 0 515.2 34 475.7 86.5C436.3 34 373.5 0 302.8 0C183.4 0 86.6 96.8 86.6 216.2C86.6 286.9 120.6 349.7 173.1 389.2C120.6 428.6 86.6 491.4 86.6 562.1C86.6 632.8 120.6 695.6 173.1 735.1C120.6 774.5 86.6 837.3 86.6 908C86.6 1027.4 183.4 1124.2 302.8 1124.2C373.5 1124.2 410.1 1037.7 475.8 1037.7C541.5 1037.7 578 1124.2 648.8 1124.2C719.6 1124.2 756.1 1037.7 821.8 1037.7C887.5 1037.7 924 1124.2 994.8 1124.2C1065.6 1124.2 1102.1 1037.7 1167.8 1037.7C1233.5 1037.7 1270 1124.2 1340.8 1124.2C1411.6 1124.2 1448.1 1037.7 1513.8 1037.7C1579.5 1037.7 1616 1124.2 1686.8 1124.2C1806.2 1124.2 1903 1027.4 1903 908C1903 837.3 1869 774.5 1816.5 735C1869 695.6 1903 632.8 1903 562C1903 491.2 1869 428.5 1816.5 389C1869 349.6 1903 286.8 1903 216C1902.6 96.8 1805.8 0 1686.4 0Z" fill="black"/>
<path d="M999.4 1557.6C987.6 1557.6 976.5 1553 968.2 1544.7L901.9 1478.4C891 1467.5 886.5 1451.4 890.3 1436.5L955.1 1177.1L928.2 1150.2C915.5 1137.5 911.8 1118.6 918.6 1102.1C925.5 1085.5 941.5 1074.8 959.4 1074.8H1039.4C1057.3 1074.8 1073.3 1085.5 1080.2 1102.1C1087.1 1118.7 1083.3 1137.5 1070.6 1150.2L1043.7 1177.1L1108.5 1436.5C1112.2 1451.5 1107.8 1467.5 1096.9 1478.4L1030.6 1544.7C1022.3 1553 1011.2 1557.6 999.4 1557.6Z" fill="#FF0000"/>
<path d="M1039.4 1098.8C1057.3 1098.8 1066.3 1120.5 1053.6 1133.2L1025.1 1161.7C1020.1 1166.7 1018.1 1174 1019.8 1180.8L1085.2 1442.3C1086.9 1449.2 1084.9 1456.4 1079.9 1461.4L1013.6 1527.7C1009.7 1531.6 1004.5 1533.6 999.4 1533.6C994.3 1533.6 989.1 1531.6 985.2 1527.7L918.9 1461.4C913.9 1456.4 911.9 1449.1 913.6 1442.3L979 1180.8C980.7 1173.9 978.7 1166.7 973.7 1161.7L945.2 1133.2C932.5 1120.5 941.5 1098.8 959.4 1098.8H1039.4ZM1039.4 1050.7H959.4C931.7 1050.7 907 1067.2 896.4 1092.8C885.8 1118.4 891.6 1147.5 911.2 1167.1L928.5 1184.4L867 1430.6C861.2 1453.7 868.1 1478.5 884.9 1495.4L951.2 1561.7C964.1 1574.6 981.2 1581.7 999.4 1581.7C1017.6 1581.7 1034.7 1574.6 1047.6 1561.7L1113.9 1495.4C1130.7 1478.6 1137.6 1453.7 1131.8 1430.6L1070.2 1184.4L1087.5 1167.1C1107.1 1147.5 1112.9 1118.4 1102.3 1092.8C1091.8 1067.2 1067.1 1050.7 1039.4 1050.7Z" fill="black"/>
<path d="M480.5 432.3C504.359 432.3 523.7 412.959 523.7 389.1C523.7 365.241 504.359 345.9 480.5 345.9C456.641 345.9 437.3 365.241 437.3 389.1C437.3 412.959 456.641 432.3 480.5 432.3Z" fill="black"/>
<path d="M826.5 432.3C850.359 432.3 869.7 412.959 869.7 389.1C869.7 365.241 850.359 345.9 826.5 345.9C802.641 345.9 783.3 365.241 783.3 389.1C783.3 412.959 802.641 432.3 826.5 432.3Z" fill="black"/>
<path d="M1172.4 432.3C1196.26 432.3 1215.6 412.959 1215.6 389.1C1215.6 365.241 1196.26 345.9 1172.4 345.9C1148.54 345.9 1129.2 365.241 1129.2 389.1C1129.2 412.959 1148.54 432.3 1172.4 432.3Z" fill="black"/>
<path d="M1518.3 432.3C1542.16 432.3 1561.5 412.959 1561.5 389.1C1561.5 365.241 1542.16 345.9 1518.3 345.9C1494.44 345.9 1475.1 365.241 1475.1 389.1C1475.1 412.959 1494.44 432.3 1518.3 432.3Z" fill="black"/>
<path d="M480.5 778.2C504.359 778.2 523.7 758.859 523.7 735C523.7 711.141 504.359 691.8 480.5 691.8C456.641 691.8 437.3 711.141 437.3 735C437.3 758.859 456.641 778.2 480.5 778.2Z" fill="black"/>
<path d="M826.5 778.2C850.359 778.2 869.7 758.859 869.7 735C869.7 711.141 850.359 691.8 826.5 691.8C802.641 691.8 783.3 711.141 783.3 735C783.3 758.859 802.641 778.2 826.5 778.2Z" fill="black"/>
<path d="M1172.4 778.2C1196.26 778.2 1215.6 758.859 1215.6 735C1215.6 711.141 1196.26 691.8 1172.4 691.8C1148.54 691.8 1129.2 711.141 1129.2 735C1129.2 758.859 1148.54 778.2 1172.4 778.2Z" fill="black"/>
<path d="M1518.3 778.2C1542.16 778.2 1561.5 758.859 1561.5 735C1561.5 711.141 1542.16 691.8 1518.3 691.8C1494.44 691.8 1475.1 711.141 1475.1 735C1475.1 758.859 1494.44 778.2 1518.3 778.2Z" fill="black"/>
<path d="M59.94 2142.15C49.62 2142.15 40.68 2139.63 33.12 2134.59C25.68 2129.43 19.92 2122.11 15.84 2112.63C11.88 2103.03 9.9 2091.57 9.9 2078.25C9.9 2064.81 11.82 2053.29 15.66 2043.69C19.62 2033.97 25.2 2026.59 32.4 2021.55C39.72 2016.39 48.36 2013.81 58.32 2013.81C68.52 2013.81 77.22 2016.09 84.42 2020.65C91.74 2025.09 97.44 2031.39 101.52 2039.55L90.72 2045.85C86.88 2038.77 82.38 2033.73 77.22 2030.73C72.06 2027.61 65.76 2026.05 58.32 2026.05C47.64 2026.05 39.24 2030.67 33.12 2039.91C27.12 2049.03 24.12 2061.75 24.12 2078.07C24.12 2088.75 25.5 2097.99 28.26 2105.79C31.02 2113.59 34.98 2119.59 40.14 2123.79C45.3 2127.87 51.3 2129.91 58.14 2129.91C66.66 2129.91 73.26 2128.05 77.94 2124.33C82.74 2120.49 87.18 2114.55 91.26 2106.51L102.6 2113.35C98.28 2122.71 92.52 2129.85 85.32 2134.77C78.24 2139.69 69.78 2142.15 59.94 2142.15ZM161.724 2052.15C164.604 2052.15 167.364 2052.57 170.004 2053.41V2064.57C167.484 2063.37 164.724 2062.77 161.724 2062.77C156.564 2062.77 151.764 2064.21 147.324 2067.09C142.884 2069.97 139.284 2074.17 136.524 2079.69C133.884 2085.09 132.564 2091.51 132.564 2098.95V2139.27H120.324V2055.03H132.564V2071.95C135.804 2065.71 139.884 2060.85 144.804 2057.37C149.844 2053.89 155.484 2052.15 161.724 2052.15ZM259.62 2055.03V2139.27H247.38V2126.85C243.9 2131.65 239.64 2135.43 234.6 2138.19C229.56 2140.83 224.04 2142.15 218.04 2142.15C210 2142.15 202.8 2140.23 196.44 2136.39C190.08 2132.55 185.1 2127.21 181.5 2120.37C177.9 2113.53 176.1 2105.73 176.1 2096.97C176.1 2088.33 177.84 2080.65 181.32 2073.93C184.92 2067.09 189.84 2061.75 196.08 2057.91C202.44 2054.07 209.64 2052.15 217.68 2052.15C223.8 2052.15 229.38 2053.53 234.42 2056.29C239.58 2058.93 243.9 2062.71 247.38 2067.63V2055.03H259.62ZM217.68 2130.99C223.44 2130.99 228.54 2129.55 232.98 2126.67C237.54 2123.79 241.08 2119.77 243.6 2114.61C246.12 2109.45 247.38 2103.63 247.38 2097.15C247.38 2090.67 246.12 2084.85 243.6 2079.69C241.08 2074.53 237.54 2070.51 232.98 2067.63C228.54 2064.75 223.44 2063.31 217.68 2063.31C212.04 2063.31 207 2064.75 202.56 2067.63C198.12 2070.51 194.64 2074.53 192.12 2079.69C189.6 2084.73 188.34 2090.49 188.34 2096.97C188.34 2103.57 189.6 2109.45 192.12 2114.61C194.64 2119.77 198.12 2123.79 202.56 2126.67C207 2129.55 212.04 2130.99 217.68 2130.99ZM318.759 2142.15C310.599 2142.15 303.339 2140.23 296.979 2136.39C290.619 2132.55 285.639 2127.21 282.039 2120.37C278.439 2113.53 276.639 2105.79 276.639 2097.15C276.639 2088.51 278.379 2080.77 281.859 2073.93C285.459 2067.09 290.439 2061.75 296.799 2057.91C303.159 2054.07 310.359 2052.15 318.399 2052.15C325.239 2052.15 331.179 2053.65 336.219 2056.65C341.379 2059.53 346.059 2063.67 350.259 2069.07L341.259 2076.09C335.379 2067.57 327.759 2063.31 318.399 2063.31C312.759 2063.31 307.659 2064.75 303.099 2067.63C298.659 2070.51 295.179 2074.53 292.659 2079.69C290.139 2084.85 288.879 2090.67 288.879 2097.15C288.879 2103.63 290.139 2109.45 292.659 2114.61C295.179 2119.77 298.659 2123.79 303.099 2126.67C307.659 2129.55 312.759 2130.99 318.399 2130.99C324.159 2130.99 328.899 2130.03 332.619 2128.11C336.339 2126.07 339.699 2123.13 342.699 2119.29L352.239 2125.95C348.279 2130.87 343.359 2134.83 337.479 2137.83C331.719 2140.71 325.479 2142.15 318.759 2142.15ZM420.02 2139.27L390.5 2095.89L380.24 2105.79V2139.27H368V2008.59H380.24V2090.31L417.14 2055.03H432.98L398.96 2087.79L433.7 2139.27H420.02ZM544.437 2055.03H555.957L510.417 2175.27H498.177L511.497 2140.89L476.937 2055.03H489.717L517.617 2124.87L544.437 2055.03ZM604.056 2142.15C596.016 2142.15 588.816 2140.23 582.456 2136.39C576.096 2132.55 571.116 2127.21 567.516 2120.37C563.916 2113.41 562.116 2105.61 562.116 2096.97C562.116 2088.33 563.856 2080.65 567.336 2073.93C570.936 2067.09 575.856 2061.75 582.096 2057.91C588.456 2054.07 595.656 2052.15 603.696 2052.15C611.736 2052.15 618.936 2054.07 625.296 2057.91C631.656 2061.75 636.636 2067.09 640.236 2073.93C643.836 2080.77 645.636 2088.51 645.636 2097.15C645.636 2105.79 643.836 2113.53 640.236 2120.37C636.756 2127.21 631.836 2132.55 625.476 2136.39C619.236 2140.23 612.096 2142.15 604.056 2142.15ZM603.696 2130.99C609.456 2130.99 614.556 2129.55 618.996 2126.67C623.556 2123.79 627.096 2119.77 629.616 2114.61C632.136 2109.45 633.396 2103.63 633.396 2097.15C633.396 2090.67 632.136 2084.85 629.616 2079.69C627.096 2074.53 623.556 2070.51 618.996 2067.63C614.556 2064.75 609.456 2063.31 603.696 2063.31C598.056 2063.31 593.016 2064.75 588.576 2067.63C584.136 2070.51 580.656 2074.53 578.136 2079.69C575.616 2084.73 574.356 2090.49 574.356 2096.97C574.356 2103.57 575.616 2109.45 578.136 2114.61C580.656 2119.77 584.136 2123.79 588.576 2126.67C593.016 2129.55 598.056 2130.99 603.696 2130.99ZM736.941 2055.03V2139.27H724.701V2125.23C721.821 2130.63 717.981 2134.83 713.181 2137.83C708.501 2140.71 703.041 2142.15 696.801 2142.15C690.921 2142.15 685.461 2140.95 680.421 2138.55C675.501 2136.15 671.541 2132.61 668.541 2127.93C665.661 2123.25 664.221 2117.73 664.221 2111.37V2055.03H676.461V2105.97C676.461 2122.65 683.901 2130.99 698.781 2130.99C707.421 2130.99 713.901 2127.93 718.221 2121.81C722.541 2115.69 724.701 2107.47 724.701 2097.15V2055.03H736.941ZM801.041 2052.15C803.921 2052.15 806.681 2052.57 809.321 2053.41V2064.57C806.801 2063.37 804.041 2062.77 801.041 2062.77C795.881 2062.77 791.081 2064.21 786.641 2067.09C782.201 2069.97 778.601 2074.17 775.841 2079.69C773.201 2085.09 771.881 2091.51 771.881 2098.95V2139.27H759.641V2055.03H771.881V2071.95C775.121 2065.71 779.201 2060.85 784.121 2057.37C789.161 2053.89 794.801 2052.15 801.041 2052.15ZM867.375 2139.27V2055.03H879.615V2139.27H867.375ZM873.495 2038.65C870.735 2038.65 868.395 2037.69 866.475 2035.77C864.675 2033.85 863.775 2031.51 863.775 2028.75C863.775 2026.11 864.675 2023.89 866.475 2022.09C868.395 2020.17 870.735 2019.21 873.495 2019.21C876.135 2019.21 878.415 2020.17 880.335 2022.09C882.255 2023.89 883.215 2026.17 883.215 2028.93C883.215 2031.57 882.255 2033.85 880.335 2035.77C878.415 2037.69 876.135 2038.65 873.495 2038.65ZM949.019 2052.15C954.899 2052.15 960.299 2053.35 965.219 2055.75C970.259 2058.15 974.219 2061.69 977.099 2066.37C980.099 2071.05 981.599 2076.57 981.599 2082.93V2139.27H969.359V2088.33C969.359 2071.65 961.919 2063.31 947.039 2063.31C938.399 2063.31 931.919 2066.37 927.599 2072.49C923.279 2078.61 921.119 2086.83 921.119 2097.15V2139.27H908.879V2055.03H921.119V2069.07C923.999 2063.67 927.779 2059.53 932.459 2056.65C937.259 2053.65 942.779 2052.15 949.019 2052.15ZM1010.06 2139.27V2066.19H995.659V2055.03H1010.06V2027.13H1022.3V2055.03H1041.74V2066.19H1022.3V2139.27H1010.06ZM1091.49 2052.15C1099.05 2052.15 1105.89 2054.01 1112.01 2057.73C1118.13 2061.45 1122.93 2066.55 1126.41 2073.03C1129.89 2079.39 1131.63 2086.53 1131.63 2094.45C1131.63 2096.73 1131.57 2098.47 1131.45 2099.67H1062.15C1062.63 2108.31 1065.45 2115.69 1070.61 2121.81C1075.77 2127.93 1082.79 2130.99 1091.67 2130.99C1098.87 2130.99 1104.81 2129.67 1109.49 2127.03C1114.29 2124.27 1118.13 2120.49 1121.01 2115.69L1130.73 2122.17C1126.77 2128.41 1121.55 2133.33 1115.07 2136.93C1108.59 2140.41 1100.91 2142.15 1092.03 2142.15C1083.87 2142.15 1076.61 2140.23 1070.25 2136.39C1063.89 2132.55 1058.91 2127.21 1055.31 2120.37C1051.71 2113.53 1049.91 2105.79 1049.91 2097.15C1049.91 2088.51 1051.65 2080.77 1055.13 2073.93C1058.73 2067.09 1063.65 2061.75 1069.89 2057.91C1076.25 2054.07 1083.45 2052.15 1091.49 2052.15ZM1119.39 2089.59C1118.19 2080.83 1115.25 2074.29 1110.57 2069.97C1105.89 2065.53 1099.53 2063.31 1091.49 2063.31C1083.69 2063.31 1077.27 2065.83 1072.23 2070.87C1067.31 2075.79 1064.19 2082.03 1062.87 2089.59H1119.39ZM1191.1 2052.15C1193.98 2052.15 1196.74 2052.57 1199.38 2053.41V2064.57C1196.86 2063.37 1194.1 2062.77 1191.1 2062.77C1185.94 2062.77 1181.14 2064.21 1176.7 2067.09C1172.26 2069.97 1168.66 2074.17 1165.9 2079.69C1163.26 2085.09 1161.94 2091.51 1161.94 2098.95V2139.27H1149.7V2055.03H1161.94V2071.95C1165.18 2065.71 1169.26 2060.85 1174.18 2057.37C1179.22 2053.89 1184.86 2052.15 1191.1 2052.15ZM1250.84 2052.15C1256.72 2052.15 1262.12 2053.35 1267.04 2055.75C1272.08 2058.15 1276.04 2061.69 1278.92 2066.37C1281.92 2071.05 1283.42 2076.57 1283.42 2082.93V2139.27H1271.18V2088.33C1271.18 2071.65 1263.74 2063.31 1248.86 2063.31C1240.22 2063.31 1233.74 2066.37 1229.42 2072.49C1225.1 2078.61 1222.94 2086.83 1222.94 2097.15V2139.27H1210.7V2055.03H1222.94V2069.07C1225.82 2063.67 1229.6 2059.53 1234.28 2056.65C1239.08 2053.65 1244.6 2052.15 1250.84 2052.15ZM1337.08 2142.15C1328.92 2142.15 1321.72 2140.41 1315.48 2136.93C1309.36 2133.45 1304.68 2128.53 1301.44 2122.17L1312.42 2116.77C1316.86 2126.25 1325.56 2130.99 1338.52 2130.99C1344.76 2130.99 1349.92 2129.85 1354 2127.57C1358.08 2125.29 1360.12 2121.75 1360.12 2116.95C1360.12 2112.03 1358.44 2108.37 1355.08 2105.97C1351.84 2103.57 1346.08 2102.01 1337.8 2101.29C1326.28 2100.33 1318 2097.75 1312.96 2093.55C1308.04 2089.35 1305.58 2083.77 1305.58 2076.81C1305.58 2069.01 1308.4 2062.95 1314.04 2058.63C1319.68 2054.31 1327.42 2052.15 1337.26 2052.15C1353.94 2052.15 1365.28 2058.75 1371.28 2071.95L1360.3 2077.35C1358.26 2072.55 1355.26 2069.01 1351.3 2066.73C1347.46 2064.45 1342.48 2063.31 1336.36 2063.31C1330.12 2063.31 1325.32 2064.45 1321.96 2066.73C1318.72 2069.01 1317.1 2072.25 1317.1 2076.45C1317.1 2080.41 1318.84 2083.65 1322.32 2086.17C1325.92 2088.57 1332.04 2090.13 1340.68 2090.85C1351.36 2091.81 1359.28 2094.45 1364.44 2098.77C1369.72 2102.97 1372.36 2108.55 1372.36 2115.51C1372.36 2121.15 1370.74 2126.01 1367.5 2130.09C1364.26 2134.05 1359.94 2137.05 1354.54 2139.09C1349.14 2141.13 1343.32 2142.15 1337.08 2142.15ZM1431.01 2052.15C1436.89 2052.15 1442.29 2053.35 1447.21 2055.75C1452.25 2058.15 1456.21 2061.69 1459.09 2066.37C1462.09 2071.05 1463.59 2076.57 1463.59 2082.93V2139.27H1451.35V2088.33C1451.35 2071.65 1443.91 2063.31 1429.03 2063.31C1420.39 2063.31 1413.91 2066.37 1409.59 2072.49C1405.27 2078.61 1403.11 2086.83 1403.11 2097.15V2139.27H1390.87V2008.59H1403.11V2069.07C1405.99 2063.67 1409.77 2059.53 1414.45 2056.65C1419.25 2053.65 1424.77 2052.15 1431.01 2052.15ZM1493.68 2139.27V2055.03H1505.92V2139.27H1493.68ZM1499.8 2038.65C1497.04 2038.65 1494.7 2037.69 1492.78 2035.77C1490.98 2033.85 1490.08 2031.51 1490.08 2028.75C1490.08 2026.11 1490.98 2023.89 1492.78 2022.09C1494.7 2020.17 1497.04 2019.21 1499.8 2019.21C1502.44 2019.21 1504.72 2020.17 1506.64 2022.09C1508.56 2023.89 1509.52 2026.17 1509.52 2028.93C1509.52 2031.57 1508.56 2033.85 1506.64 2035.77C1504.72 2037.69 1502.44 2038.65 1499.8 2038.65ZM1576.95 2052.15C1584.99 2052.15 1592.19 2054.07 1598.55 2057.91C1604.91 2061.75 1609.89 2067.09 1613.49 2073.93C1617.09 2080.77 1618.89 2088.57 1618.89 2097.33C1618.89 2105.97 1617.09 2113.71 1613.49 2120.55C1610.01 2127.27 1605.09 2132.55 1598.73 2136.39C1592.49 2140.23 1585.35 2142.15 1577.31 2142.15C1571.19 2142.15 1565.55 2140.83 1560.39 2138.19C1555.35 2135.43 1551.09 2131.59 1547.61 2126.67V2175.27H1535.37V2055.03H1547.61V2067.45C1551.09 2062.65 1555.35 2058.93 1560.39 2056.29C1565.43 2053.53 1570.95 2052.15 1576.95 2052.15ZM1577.31 2130.99C1582.95 2130.99 1587.99 2129.55 1592.43 2126.67C1596.87 2123.79 1600.35 2119.83 1602.87 2114.79C1605.39 2109.63 1606.65 2103.81 1606.65 2097.33C1606.65 2090.73 1605.39 2084.85 1602.87 2079.69C1600.35 2074.53 1596.87 2070.51 1592.43 2067.63C1587.99 2064.75 1582.95 2063.31 1577.31 2063.31C1571.55 2063.31 1566.39 2064.75 1561.83 2067.63C1557.39 2070.51 1553.91 2074.53 1551.39 2079.69C1548.87 2084.85 1547.61 2090.67 1547.61 2097.15C1547.61 2103.63 1548.87 2109.45 1551.39 2114.61C1553.91 2119.77 1557.39 2123.79 1561.83 2126.67C1566.39 2129.55 1571.55 2130.99 1577.31 2130.99ZM1778.76 2055.03H1790.46L1763.1 2139.27H1750.32L1729.8 2074.65L1707.66 2139.27H1695.42L1667.7 2055.03H1680.66L1702.26 2121.99L1724.22 2055.03H1736.1L1757.34 2121.63L1778.76 2055.03ZM1812.2 2139.27V2055.03H1824.44V2139.27H1812.2ZM1818.32 2038.65C1815.56 2038.65 1813.22 2037.69 1811.3 2035.77C1809.5 2033.85 1808.6 2031.51 1808.6 2028.75C1808.6 2026.11 1809.5 2023.89 1811.3 2022.09C1813.22 2020.17 1815.56 2019.21 1818.32 2019.21C1820.96 2019.21 1823.24 2020.17 1825.16 2022.09C1827.08 2023.89 1828.04 2026.17 1828.04 2028.93C1828.04 2031.57 1827.08 2033.85 1825.16 2035.77C1823.24 2037.69 1820.96 2038.65 1818.32 2038.65ZM1858.2 2139.27V2066.19H1843.8V2055.03H1858.2V2027.13H1870.44V2055.03H1889.88V2066.19H1870.44V2139.27H1858.2ZM1943.41 2052.15C1949.29 2052.15 1954.69 2053.35 1959.61 2055.75C1964.65 2058.15 1968.61 2061.69 1971.49 2066.37C1974.49 2071.05 1975.99 2076.57 1975.99 2082.93V2139.27H1963.75V2088.33C1963.75 2071.65 1956.31 2063.31 1941.43 2063.31C1932.79 2063.31 1926.31 2066.37 1921.99 2072.49C1917.67 2078.61 1915.51 2086.83 1915.51 2097.15V2139.27H1903.27V2008.59H1915.51V2069.07C1918.39 2063.67 1922.17 2059.53 1926.85 2056.65C1931.65 2053.65 1937.17 2052.15 1943.41 2052.15Z" fill="#FF0000"/>
<path d="M313.8 2307.67C293.267 2307.67 277.533 2313.94 266.6 2326.47C255.667 2339.01 250.2 2356.74 250.2 2379.67C250.2 2402.87 256.2 2420.74 268.2 2433.27C280.467 2445.81 296.867 2452.07 317.4 2452.07C328.333 2452.07 337.533 2450.61 345 2447.67C352.733 2444.74 360.067 2441.41 367 2437.67C371.533 2441.41 375 2445.94 377.4 2451.27C380.067 2456.34 381.4 2462.34 381.4 2469.27C381.4 2480.21 375.267 2489.54 363 2497.27C351 2504.74 332.6 2508.47 307.8 2508.47C289.933 2508.47 273.133 2505.94 257.4 2500.87C241.667 2495.81 227.933 2488.07 216.2 2477.67C204.467 2467.01 195.133 2453.67 188.2 2437.67C181.533 2421.41 178.2 2402.07 178.2 2379.67C178.2 2358.87 181.4 2340.61 187.8 2324.87C194.467 2308.87 203.4 2295.41 214.6 2284.47C226.067 2273.54 239.4 2265.27 254.6 2259.67C269.8 2254.07 286.067 2251.27 303.4 2251.27C327.933 2251.27 346.867 2255.27 360.2 2263.27C373.8 2271.27 380.6 2281.54 380.6 2294.07C380.6 2301.01 378.867 2307.01 375.4 2312.07C371.933 2317.14 367.933 2321.14 363.4 2324.07C356.467 2319.54 349 2315.67 341 2312.47C333.267 2309.27 324.2 2307.67 313.8 2307.67ZM488.316 2422.87V2499.67C485.382 2500.47 480.716 2501.27 474.316 2502.07C468.182 2502.87 462.049 2503.27 455.916 2503.27C449.782 2503.27 444.316 2502.74 439.516 2501.67C434.982 2500.87 431.116 2499.27 427.916 2496.87C424.982 2494.47 422.716 2491.14 421.116 2486.87C419.516 2482.61 418.716 2477.01 418.716 2470.07V2281.67C418.716 2276.07 420.182 2271.81 423.116 2268.87C426.316 2265.67 430.582 2263.14 435.916 2261.27C444.982 2258.07 455.516 2255.81 467.516 2254.47C479.516 2252.87 492.316 2252.07 505.916 2252.07C542.716 2252.07 570.449 2259.81 589.116 2275.27C607.782 2290.74 617.116 2311.67 617.116 2338.07C617.116 2354.61 612.849 2368.74 604.316 2380.47C595.782 2392.21 585.649 2401.27 573.916 2407.67C583.516 2420.74 592.982 2433.01 602.316 2444.47C611.649 2455.94 618.982 2466.34 624.316 2475.67C621.649 2485.01 616.716 2492.21 609.516 2497.27C602.582 2502.07 594.716 2504.47 585.916 2504.47C580.049 2504.47 574.982 2503.81 570.716 2502.47C566.449 2501.14 562.716 2499.27 559.516 2496.87C556.316 2494.47 553.382 2491.54 550.716 2488.07C548.049 2484.61 545.516 2480.87 543.116 2476.87L509.516 2422.87H488.316ZM513.516 2369.67C523.649 2369.67 531.649 2367.14 537.516 2362.07C543.382 2356.74 546.316 2349.01 546.316 2338.87C546.316 2328.74 542.982 2321.14 536.316 2316.07C529.916 2310.74 519.649 2308.07 505.516 2308.07C501.516 2308.07 498.316 2308.21 495.916 2308.47C493.516 2308.74 490.849 2309.14 487.916 2309.67V2369.67H513.516ZM717.191 2266.07C721.724 2263.41 728.524 2260.87 737.591 2258.47C746.924 2256.07 756.257 2254.87 765.591 2254.87C778.924 2254.87 790.657 2256.87 800.791 2260.87C811.191 2264.61 817.857 2270.61 820.791 2278.87C825.591 2292.74 830.791 2308.87 836.391 2327.27C841.991 2345.67 847.591 2364.74 853.191 2384.47C858.791 2403.94 864.257 2423.27 869.591 2442.47C874.924 2461.41 879.591 2478.21 883.591 2492.87C880.391 2496.61 875.591 2499.54 869.191 2501.67C862.791 2504.07 855.191 2505.27 846.391 2505.27C839.991 2505.27 834.524 2504.74 829.991 2503.67C825.724 2502.61 822.124 2501.01 819.191 2498.87C816.524 2496.74 814.257 2493.94 812.391 2490.47C810.791 2487.01 809.324 2483.01 807.991 2478.47L800.791 2450.87H728.391C726.257 2458.87 724.124 2467.14 721.991 2475.67C719.857 2484.21 717.724 2492.47 715.591 2500.47C711.857 2501.81 707.857 2502.87 703.591 2503.67C699.591 2504.74 694.657 2505.27 688.791 2505.27C675.191 2505.27 665.057 2503.01 658.391 2498.47C651.991 2493.67 648.791 2487.14 648.791 2478.87C648.791 2475.14 649.324 2471.41 650.391 2467.67C651.457 2463.94 652.657 2459.54 653.991 2454.47C655.857 2447.27 658.391 2438.34 661.591 2427.67C665.057 2417.01 668.791 2405.54 672.791 2393.27C676.791 2380.74 681.057 2367.94 685.591 2354.87C690.124 2341.81 694.391 2329.54 698.391 2318.07C702.391 2306.34 705.991 2295.94 709.191 2286.87C712.657 2277.81 715.324 2270.87 717.191 2266.07ZM765.191 2317.67C761.457 2328.87 757.191 2341.41 752.391 2355.27C747.857 2368.87 743.724 2382.74 739.991 2396.87H789.591C785.857 2382.47 781.991 2368.47 777.991 2354.87C774.257 2341.01 770.791 2328.61 767.591 2317.67H765.191ZM1036.07 2307.67C1015.53 2307.67 999.799 2313.94 988.866 2326.47C977.932 2339.01 972.466 2356.74 972.466 2379.67C972.466 2402.87 978.466 2420.74 990.466 2433.27C1002.73 2445.81 1019.13 2452.07 1039.67 2452.07C1050.6 2452.07 1059.8 2450.61 1067.27 2447.67C1075 2444.74 1082.33 2441.41 1089.27 2437.67C1093.8 2441.41 1097.27 2445.94 1099.67 2451.27C1102.33 2456.34 1103.67 2462.34 1103.67 2469.27C1103.67 2480.21 1097.53 2489.54 1085.27 2497.27C1073.27 2504.74 1054.87 2508.47 1030.07 2508.47C1012.2 2508.47 995.399 2505.94 979.666 2500.87C963.932 2495.81 950.199 2488.07 938.466 2477.67C926.732 2467.01 917.399 2453.67 910.466 2437.67C903.799 2421.41 900.466 2402.07 900.466 2379.67C900.466 2358.87 903.666 2340.61 910.066 2324.87C916.732 2308.87 925.666 2295.41 936.866 2284.47C948.332 2273.54 961.666 2265.27 976.866 2259.67C992.066 2254.07 1008.33 2251.27 1025.67 2251.27C1050.2 2251.27 1069.13 2255.27 1082.47 2263.27C1096.07 2271.27 1102.87 2281.54 1102.87 2294.07C1102.87 2301.01 1101.13 2307.01 1097.67 2312.07C1094.2 2317.14 1090.2 2321.14 1085.67 2324.07C1078.73 2319.54 1071.27 2315.67 1063.27 2312.47C1055.53 2309.27 1046.47 2307.67 1036.07 2307.67ZM1211.38 2411.27V2499.67C1208.45 2500.47 1203.78 2501.27 1197.38 2502.07C1190.98 2502.87 1184.71 2503.27 1178.58 2503.27C1172.45 2503.27 1166.98 2502.74 1162.18 2501.67C1157.65 2500.87 1153.78 2499.27 1150.58 2496.87C1147.38 2494.47 1144.98 2491.14 1143.38 2486.87C1141.78 2482.61 1140.98 2477.01 1140.98 2470.07V2258.87C1143.91 2258.34 1148.58 2257.67 1154.98 2256.87C1161.38 2255.81 1167.51 2255.27 1173.38 2255.27C1179.51 2255.27 1184.85 2255.81 1189.38 2256.87C1194.18 2257.67 1198.18 2259.27 1201.38 2261.67C1204.58 2264.07 1206.98 2267.41 1208.58 2271.67C1210.18 2275.94 1210.98 2281.54 1210.98 2288.47V2352.07L1294.18 2256.47C1312.31 2256.47 1325.25 2259.94 1332.98 2266.87C1340.98 2273.54 1344.98 2281.54 1344.98 2290.87C1344.98 2297.81 1343.25 2304.34 1339.78 2310.47C1336.31 2316.61 1330.71 2323.54 1322.98 2331.27L1272.98 2381.27C1279.65 2388.74 1286.58 2396.47 1293.78 2404.47C1301.25 2412.47 1308.45 2420.34 1315.38 2428.07C1322.58 2435.54 1329.38 2442.74 1335.78 2449.67C1342.45 2456.61 1348.18 2462.61 1352.98 2467.67C1352.98 2473.54 1351.91 2478.74 1349.78 2483.27C1347.65 2487.81 1344.71 2491.67 1340.98 2494.87C1337.51 2498.07 1333.51 2500.47 1328.98 2502.07C1324.45 2503.67 1319.65 2504.47 1314.58 2504.47C1303.65 2504.47 1294.71 2501.81 1287.78 2496.47C1280.85 2490.87 1274.18 2484.34 1267.78 2476.87L1211.38 2411.27ZM1387.08 2296.07C1387.08 2284.61 1390.41 2275.54 1397.08 2268.87C1403.74 2262.21 1412.81 2258.87 1424.28 2258.87H1556.28C1558.14 2261.81 1559.74 2265.67 1561.08 2270.47C1562.68 2275.27 1563.48 2280.34 1563.48 2285.67C1563.48 2295.81 1561.21 2303.01 1556.68 2307.27C1552.41 2311.54 1546.68 2313.67 1539.48 2313.67H1455.08V2350.87H1545.08C1546.94 2353.81 1548.54 2357.67 1549.88 2362.47C1551.48 2367.01 1552.28 2371.94 1552.28 2377.27C1552.28 2387.41 1550.14 2394.61 1545.88 2398.87C1541.61 2403.14 1535.88 2405.27 1528.68 2405.27H1455.08V2447.27H1557.88C1559.74 2450.21 1561.34 2454.07 1562.68 2458.87C1564.28 2463.67 1565.08 2468.74 1565.08 2474.07C1565.08 2484.21 1562.81 2491.54 1558.28 2496.07C1554.01 2500.34 1548.28 2502.47 1541.08 2502.47H1424.28C1412.81 2502.47 1403.74 2499.14 1397.08 2492.47C1390.41 2485.81 1387.08 2476.74 1387.08 2465.27V2296.07ZM1675.82 2422.87V2499.67C1672.88 2500.47 1668.22 2501.27 1661.82 2502.07C1655.68 2502.87 1649.55 2503.27 1643.42 2503.27C1637.28 2503.27 1631.82 2502.74 1627.02 2501.67C1622.48 2500.87 1618.62 2499.27 1615.42 2496.87C1612.48 2494.47 1610.22 2491.14 1608.62 2486.87C1607.02 2482.61 1606.22 2477.01 1606.22 2470.07V2281.67C1606.22 2276.07 1607.68 2271.81 1610.62 2268.87C1613.82 2265.67 1618.08 2263.14 1623.42 2261.27C1632.48 2258.07 1643.02 2255.81 1655.02 2254.47C1667.02 2252.87 1679.82 2252.07 1693.42 2252.07C1730.22 2252.07 1757.95 2259.81 1776.62 2275.27C1795.28 2290.74 1804.62 2311.67 1804.62 2338.07C1804.62 2354.61 1800.35 2368.74 1791.82 2380.47C1783.28 2392.21 1773.15 2401.27 1761.42 2407.67C1771.02 2420.74 1780.48 2433.01 1789.82 2444.47C1799.15 2455.94 1806.48 2466.34 1811.82 2475.67C1809.15 2485.01 1804.22 2492.21 1797.02 2497.27C1790.08 2502.07 1782.22 2504.47 1773.42 2504.47C1767.55 2504.47 1762.48 2503.81 1758.22 2502.47C1753.95 2501.14 1750.22 2499.27 1747.02 2496.87C1743.82 2494.47 1740.88 2491.54 1738.22 2488.07C1735.55 2484.61 1733.02 2480.87 1730.62 2476.87L1697.02 2422.87H1675.82ZM1701.02 2369.67C1711.15 2369.67 1719.15 2367.14 1725.02 2362.07C1730.88 2356.74 1733.82 2349.01 1733.82 2338.87C1733.82 2328.74 1730.48 2321.14 1723.82 2316.07C1717.42 2310.74 1707.15 2308.07 1693.02 2308.07C1689.02 2308.07 1685.82 2308.21 1683.42 2308.47C1681.02 2308.74 1678.35 2309.14 1675.42 2309.67V2369.67H1701.02Z" fill="black"/>
</g>
<defs>
<clipPath id="clip0">
<rect width="1988.4" height="2688.5" fill="white"/>
</clipPath>
</defs>
</svg>
